<?xml version="1.0" encoding="UTF-8"?>
<svg xmlns="http://www.w3.org/2000/svg" id="Layer_1" data-name="Layer 1" viewBox="0 0 24 24">
  <path d="m22.736,1.278c-1.23-1.23-3.009-1.613-4.636-1.002L2.676,6.084C.795,6.792-.268,8.667.093,10.645c.359,1.978,2.015,3.358,4.025,3.358h5.879v5.894c0,2.009,1.381,3.664,3.357,4.024.258.047.514.07.766.07,1.682,0,3.181-1.017,3.797-2.651l5.818-15.426c.614-1.628.231-3.404-.999-4.636Zm-1.808,3.577l-5.818,15.426c-.297.79-1.004.727-1.218.688-.21-.038-.896-.229-.896-1.073v-7.394c0-.828-.672-1.5-1.5-1.5h-7.379c-.846,0-1.036-.686-1.074-.896s-.102-.919.688-1.216l15.425-5.808c.179-.066.345-.094.497-.094.502,0,.847.296.96.409.147.147.604.687.314,1.456Z"/>
</svg>
