<?xml version="1.0" encoding="UTF-8"?>
<svg xmlns="http://www.w3.org/2000/svg" id="Layer_1" data-name="Layer 1" viewBox="0 0 24 24" width="512" height="512"><path d="M22.27,1.77l-1.12-.98c-1.02-1.02-2.75-1.07-3.85,.05l-1.87,2.45c-1.05,1.05-1.05,2.76,0,3.8l1.49,1.53c-1.62,3.8-4.61,6.8-8.29,8.3l-1.53-1.49c-.51-.51-1.18-.79-1.9-.79s-1.39,.28-1.85,.75l-2.54,1.96c-1.05,1.05-1.05,2.76-.02,3.78l1.02,1.17c1.1,1.1,2.58,1.71,4.19,1.71,7.75,0,18.02-10.28,18.02-18.02,0-1.6-.61-3.09-1.73-4.21ZM5.98,23c-1.34,0-2.57-.5-3.46-1.39l-1.02-1.18c-.66-.66-.66-1.73-.05-2.35l2.54-1.96c.32-.32,.74-.5,1.2-.5s.88,.18,1.2,.5c0,0,1.77,1.73,1.77,1.73,.14,.14,.34,.18,.53,.11,4.17-1.59,7.56-4.98,9.29-9.28,.07-.18,.03-.39-.11-.54l-1.73-1.77c-.66-.66-.66-1.73,.04-2.44l1.87-2.45c.66-.66,1.73-.66,2.42,.02l1.12,.98c.91,.91,1.41,2.14,1.41,3.48,0,7.16-9.86,17.02-17.02,17.02Z"/></svg>
